<svg xmlns="http://www.w3.org/2000/svg" width="16" height="16" fill="none"><path fill="#EEE" d="M0 0h16v16H0z"/><g clip-path="url(#a)"><path fill="#fff" d="M-853-45H587v2812H-853z"/><path fill="#F6F6F6" d="M-853-45H587V60H-853z"/><rect width="275" height="45" x="-17" y="-15" fill="#fff" rx="22.5"/><path fill="#8D8D8D" fill-rule="evenodd" d="M2.167 7.167c0-2.758 2.242-5 5-5 2.757 0 5 2.242 5 5 0 2.757-2.243 5-5 5-2.758 0-5-2.243-5-5Zm13.089 6.91-2.83-2.83a6.626 6.626 0 0 0 1.407-4.08A6.674 6.674 0 0 0 7.167.5 6.674 6.674 0 0 0 .5 7.167a6.674 6.674 0 0 0 6.667 6.666c1.538 0 2.952-.529 4.08-1.406l2.83 2.829a.831.831 0 0 0 1.179 0 .832.832 0 0 0 0-1.178Z" clip-rule="evenodd"/><mask id="b" width="16" height="16" x="0" y="0" maskUnits="userSpaceOnUse" style="mask-type:luminance"><path fill="#fff" fill-rule="evenodd" d="M2.167 7.167c0-2.758 2.242-5 5-5 2.757 0 5 2.242 5 5 0 2.757-2.243 5-5 5-2.758 0-5-2.243-5-5Zm13.089 6.91-2.83-2.83a6.626 6.626 0 0 0 1.407-4.08A6.674 6.674 0 0 0 7.167.5 6.674 6.674 0 0 0 .5 7.167a6.674 6.674 0 0 0 6.667 6.666c1.538 0 2.952-.529 4.08-1.406l2.83 2.829a.831.831 0 0 0 1.179 0 .832.832 0 0 0 0-1.178Z" clip-rule="evenodd"/></mask><g mask="url(#b)"><path fill="#8D8D8D" d="M-2-2h20v20H-2z"/></g></g><defs><clipPath id="a"><path fill="#fff" d="M-853-45H587v2812H-853z"/></clipPath></defs></svg>